<!--?xml version="1.0" standalone="no"?-->

<svg xmlns="http://www.w3.org/2000/svg" width="300.000000pt" height="300.000000pt" viewBox="0 0 300.000000 300.000000" preserveAspectRatio="xMidYMid meet">
<g transform="translate(0.000000,300.000000) scale(0.100000,-0.100000)" fill="#151515" stroke="none">
<path style="position: relative; left: 480.367px; top: 263.6px;" class="node" id="node1" d="M1448 2249 c-113 -130 -181 -256 -224 -414 -21 -75 -25 -112 -25
-221 1 -155 27 -277 85 -393 32 -63 102 -171 111 -171 2 0 -12 36 -31 80 -72
165 -92 382 -53 565 28 135 101 299 169 385 l20 25 24 -30 c35 -43 101 -177
130 -265 13 -41 32 -131 42 -199 15 -108 16 -135 4 -220 -14 -107 -33 -187
-55 -238 -8 -18 -22 -48 -30 -67 -24 -55 -17 -53 27 10 63 90 115 206 139 310
38 164 15 402 -53 554 -57 128 -121 232 -191 314 l-33 39 -56 -64z" transform="translate(-5,45.00000000000003) scale(1)"></path>
<path style="position: relative; fill: rgb(0, 0, 0);" class="node" id="node2" d="M1939 2126 c-60 -17 -141 -61 -174 -96 -22 -23 -25 -31 -16 -46 6
-11 16 -32 21 -48 l11 -30 62 61 c92 89 144 126 154 111 20 -32 34 -90 40
-171 5 -75 8 -87 22 -81 9 3 29 11 44 16 27 10 28 12 21 57 -14 95 -88 242
-122 240 -9 0 -38 -7 -63 -13z" fill="#000000"></path>
<path style="position: relative; fill: rgb(0, 0, 0);" class="node" id="node3" d="M943 2098 c-45 -70 -64 -122 -70 -186 l-5 -67 46 -22 c26 -13 49 -23
52 -23 4 0 4 19 0 43 -7 53 8 215 22 229 18 18 130 -55 194 -127 l26 -30 21
45 20 45 -21 22 c-30 32 -158 91 -214 98 -47 6 -50 5 -71 -27z" transform="scale(1) translate(-5,45.00000000000003) rotate(0 464.6333312988281 264.93333435058594)" fill="#000000"></path>
<path style="position: relative;" class="node" id="node4" d="M2343 1879 c-145 -19 -340 -100 -448 -187 l-60 -48 -6 -69 c-3 -39
-4 -71 -3 -73 1 -1 28 19 60 46 107 88 260 159 398 185 64 12 78 13 83 2 7
-21 -15 -115 -48 -202 -107 -277 -328 -500 -579 -584 -47 -15 -50 -18 -24 -18
55 -1 186 38 279 83 228 112 388 303 474 568 23 71 51 220 51 276 l0 32 -57
-1 c-32 -1 -86 -5 -120 -10z"></path>
<path style="position: relative; left: 333.767px; top: 320.867px;" class="node" id="node5" d="M490 1833 c0 -161 83 -410 180 -545 78 -108 169 -194 270 -255 96
-59 302 -125 342 -110 10 4 9 6 -2 10 -138 46 -242 110 -348 211 -131 125
-205 244 -261 414 -57 174 -54 189 40 167 137 -32 290 -104 402 -191 31 -24
59 -44 61 -44 2 0 0 17 -5 38 -5 20 -9 53 -9 72 0 31 -8 40 -63 82 -147 110
-390 198 -548 198 l-59 0 0 -47z" transform="translate(-53.06600000000003,44.53399999999999) scale(1)"></path>
<path style="position: relative;" class="node" id="node6" d="M430 1496 c-61 -17 -155 -63 -175 -87 -35 -38 9 -166 85 -251 l35
-39 48 21 49 22 -80 81 c-83 86 -109 124 -95 137 14 14 150 40 207 40 l55 0
-19 43 c-22 48 -39 53 -110 33z"></path>
<path style="position: relative;" class="node" id="node7" d="M2450 1454 c-11 -26 -20 -48 -20 -49 0 -1 58 -4 130 -7 79 -2 134 -8
141 -15 16 -16 -29 -92 -99 -166 -31 -31 -53 -58 -51 -60 2 -1 21 -11 43 -20
37 -17 39 -17 58 0 27 25 82 137 98 200 13 51 13 54 -10 78 -34 37 -159 85
-219 85 -50 0 -50 0 -71 -46z"></path>
<path style="position: relative;" class="node" id="node8" d="M2270 1185 c-15 -19 -20 -15 63 -49 66 -28 213 -119 252 -157 19 -19
19 -19 -1 -38 -69 -64 -272 -150 -404 -171 -156 -24 -365 -1 -502 55 -10 4
-18 4 -18 1 0 -15 163 -79 260 -103 277 -69 590 -3 825 174 82 62 145 120 145
133 0 4 -33 11 -72 14 -89 9 -141 24 -233 66 -89 41 -133 57 -212 75 -80 19
-88 19 -103 0z"></path>
<path style="position: relative;" class="node" id="node9" d="M627 1183 c-16 -2 -72 -23 -125 -45 -174 -72 -216 -85 -305 -98 -48
-7 -87 -16 -87 -20 0 -13 103 -104 168 -148 313 -213 702 -240 1033 -71 56 28
44 33 -22 8 -195 -72 -434 -73 -631 -3 -110 40 -258 126 -258 150 0 18 198
147 268 174 94 37 69 70 -41 53z"></path>
</g>
<g transform="translate(0.000000,300.000000) scale(0.100000,-0.100000)" fill="#A1A1A1" stroke="none">

</g>
</svg>